{
  "accessors": [
    {
      "bufferView": 2,
      "componentType": 5126,
      "count": 2334,
      "max": [
        31.939910888671875,
        83.15232849121094,
        30.105697631835938
      ],
      "min": [
        -32.09552001953125,
        -0.06120000034570694,
        -30.037614822387695
      ],
      "type": "VEC3"
    },
    {
      "bufferView": 2,
      "byteOffset": 28008,
      "componentType": 5126,
      "count": 2334,
      "max": [
        0.999992847442627,
        0.9999979138374329,
        0.9999893307685852
      ],
      "min": [
        -0.9999988675117493,
        -1.0,
        -0.9999893307685852
      ],
      "type": "VEC3"
    },
    {
      "bufferView": 3,
      "componentType": 5126,
      "count": 2334,
      "max": [
        0.9999999403953552,
        0.9999999403953552,
        1.0,
        1.0
      ],
      "min": [
        -0.9783234000205994,
        -0.9999999403953552,
        -0.9999999403953552,
        -1.0
      ],
      "type": "VEC4"
    },
    {
      "bufferView": 1,
      "componentType": 5126,
      "count": 2334,
      "max": [
        0.959395170211792,
        0.9980080723762512
      ],
      "min": [
        0.001914965221658349,
        0.0019920433405786753
      ],
      "type": "VEC2"
    },
    {
      "bufferView": 0,
      "componentType": 5125,
      "count": 3474,
      "type": "SCALAR"
    },
    {
      "bufferView": 2,
      "byteOffset": 56016,
      "componentType": 5126,
      "count": 1245,
      "max": [
        29.82958984375,
        98.59947204589844,
        29.911848068237305
      ],
      "min": [
        -33.03759765625,
        43.7505989074707,
        -29.809951782226563
      ],
      "type": "VEC3"
    },
    {
      "bufferView": 2,
      "byteOffset": 70956,
      "componentType": 5126,
      "count": 1245,
      "max": [
        0.995326042175293,
        1.0,
        0.993827760219574
      ],
      "min": [
        -0.9994819760322571,
        -1.0,
        -0.9938277006149292
      ],
      "type": "VEC3"
    },
    {
      "bufferView": 3,
      "byteOffset": 37344,
      "componentType": 5126,
      "count": 1245,
      "max": [
        0.9999999403953552,
        0.9995408058166504,
        0.7073784470558167,
        1.0
      ],
      "min": [
        -0.9727290272712708,
        -0.9952608346939087,
        -0.7073784470558167,
        1.0
      ],
      "type": "VEC4"
    },
    {
      "bufferView": 1,
      "byteOffset": 18672,
      "componentType": 5126,
      "count": 1245,
      "max": [
        0.732465922832489,
        0.781808614730835
      ],
      "min": [
        0.0019149606814607978,
        0.0019920312333852053
      ],
      "type": "VEC2"
    },
    {
      "bufferView": 0,
      "byteOffset": 13896,
      "componentType": 5125,
      "count": 1920,
      "type": "SCALAR"
    }
  ],
  "asset": {
    "extras": {
      "author": "Pholo (https://sketchfab.com/Pholothe1)",
      "license": "CC-BY-4.0 (http://creativecommons.org/licenses/by/4.0/)",
      "source": "https://sketchfab.com/3d-models/chair-low-poly-3775963c1d6d4ba1b37956a4fb423add",
      "title": "Chair Low Poly"
    },
    "generator": "Sketchfab-12.67.0",
    "version": "2.0"
  },
  "bufferViews": [
    {
      "buffer": 0,
      "byteLength": 21576,
      "name": "floatBufferViews",
      "target": 34963
    },
    {
      "buffer": 0,
      "byteLength": 28632,
      "byteOffset": 21576,
      "byteStride": 8,
      "name": "floatBufferViews",
      "target": 34962
    },
    {
      "buffer": 0,
      "byteLength": 85896,
      "byteOffset": 50208,
      "byteStride": 12,
      "name": "floatBufferViews",
      "target": 34962
    },
    {
      "buffer": 0,
      "byteLength": 57264,
      "byteOffset": 136104,
      "byteStride": 16,
      "name": "floatBufferViews",
      "target": 34962
    }
  ],
  "buffers": [
    {
      "byteLength": 193368,
      "uri": "scene.bin"
    }
  ],
  "extensionsRequired": [
    "KHR_materials_pbrSpecularGlossiness"
  ],
  "extensionsUsed": [
    "KHR_materials_pbrSpecularGlossiness"
  ],
  "images": [
    {
      "uri": "textures/lambert2_diffuse.png"
    },
    {
      "uri": "textures/lambert2_specularGlossiness.png"
    },
    {
      "uri": "textures/lambert2_normal.png"
    },
    {
      "uri": "textures/lambert3_diffuse.png"
    },
    {
      "uri": "textures/lambert3_specularGlossiness.png"
    },
    {
      "uri": "textures/lambert3_normal.png"
    }
  ],
  "materials": [
    {
      "doubleSided": true,
      "extensions": {
        "KHR_materials_pbrSpecularGlossiness": {
          "diffuseFactor": [
            1.0,
            1.0,
            1.0,
            1.0
          ],
          "diffuseTexture": {
            "index": 0
          },
          "glossinessFactor": 1.0,
          "specularFactor": [
            0.0,
            0.0,
            0.0
          ],
          "specularGlossinessTexture": {
            "index": 1
          }
        }
      },
      "name": "lambert2",
      "normalTexture": {
        "index": 2
      }
    },
    {
      "doubleSided": true,
      "extensions": {
        "KHR_materials_pbrSpecularGlossiness": {
          "diffuseFactor": [
            1.0,
            1.0,
            1.0,
            1.0
          ],
          "diffuseTexture": {
            "index": 3
          },
          "glossinessFactor": 1.0,
          "specularFactor": [
            0.0,
            0.0,
            0.0
          ],
          "specularGlossinessTexture": {
            "index": 4
          }
        }
      },
      "name": "lambert3",
      "normalTexture": {
        "index": 5
      }
    }
  ],
  "meshes": [
    {
      "name": "Mesh_lambert2_0",
      "primitives": [
        {
          "attributes": {
            "NORMAL": 1,
            "POSITION": 0,
            "TANGENT": 2,
            "TEXCOORD_0": 3
          },
          "indices": 4,
          "material": 0,
          "mode": 4
        }
      ]
    },
    {
      "name": "Mesh_lambert3_0",
      "primitives": [
        {
          "attributes": {
            "NORMAL": 6,
            "POSITION": 5,
            "TANGENT": 7,
            "TEXCOORD_0": 8
          },
          "indices": 9,
          "material": 1,
          "mode": 4
        }
      ]
    }
  ],
  "nodes": [
    {
      "children": [
        1
      ],
      "matrix": [
        0.026642579585313797,
        0.0,
        0.0,
        0.0,
        0.0,
        -1.3463069325493028e-17,
        0.026642579585313797,
        0.0,
        0.0,
        -0.026642579585313797,
        -1.3463069325493028e-17,
        0.0,
        0.0,
        -35.91115951538086,
        -0.01985990069807373,
        1.0
      ],
      "name": "Sketchfab_model"
    },
    {
      "children": [
        2
      ],
      "matrix": [
        1.0,
        0.0,
        0.0,
        0.0,
        0.0,
        -1.0,
        0.0,
        0.0,
        0.0,
        0.0,
        -1.0,
        0.0,
        0.0,
        0.0,
        0.0,
        1.0
      ],
      "name": "a3c1c2c87fb6437ea9d163918f1fd80a.fbx"
    },
    {
      "children": [
        3
      ],
      "name": "RootNode"
    },
    {
      "children": [
        4,
        5
      ],
      "matrix": [
        0.36444932222366333,
        0.0,
        0.0,
        0.0,
        0.0,
        8.092400576834876e-17,
        0.36444932222366333,
        0.0,
        0.0,
        -0.36444932222366333,
        8.092400576834876e-17,
        0.0,
        -0.258666455745697,
        0.0,
        0.0,
        1.0
      ],
      "name": "Mesh"
    },
    {
      "mesh": 0,
      "name": "Mesh_lambert2_0"
    },
    {
      "mesh": 1,
      "name": "Mesh_lambert3_0"
    }
  ],
  "samplers": [
    {
      "magFilter": 9729,
      "minFilter": 9987,
      "wrapS": 10497,
      "wrapT": 10497
    }
  ],
  "scene": 0,
  "scenes": [
    {
      "name": "Sketchfab_Scene",
      "nodes": [
        0
      ]
    }
  ],
  "textures": [
    {
      "sampler": 0,
      "source": 0
    },
    {
      "sampler": 0,
      "source": 1
    },
    {
      "sampler": 0,
      "source": 2
    },
    {
      "sampler": 0,
      "source": 3
    },
    {
      "sampler": 0,
      "source": 4
    },
    {
      "sampler": 0,
      "source": 5
    }
  ]
}
